<svg width="192" height="192" viewBox="0 0 192 192" fill="none" xmlns="http://www.w3.org/2000/svg">
<path fill-rule="evenodd" clip-rule="evenodd" d="M94.5512 108.475V98.0345L85.1527 103.461L83.9779 101.426L93.6223 95.8577L83.3905 89.9504L84.5653 87.9155L94.5512 93.6809L94.5512 81.4541L96.9009 81.4541V93.9648L107.379 87.9155L108.553 89.9504L98.3216 95.8577L107.966 101.426L106.791 103.461L96.9009 97.7506V108.475H94.5512Z" fill="#C5FF49"/>
<path d="M79.6939 22.8471L79.3265 20.6248L87.3751 19.294L87.7425 21.5164L79.6939 22.8471Z" fill="white"/>
<path d="M68.7364 33.9706L59.8902 28.9807L58.8403 31.9895L61.7315 37.5881L59.5407 38.7194L49.5542 19.3814L51.745 18.25L57.5972 29.5824L60.6499 20.4346L63.4357 18.996L60.6784 26.7921L71.3058 32.6437L68.7364 33.9706Z" fill="white"/>
<path d="M43.2425 31.4108L44.8728 33.459L44.9204 33.4211C44.7992 32.4541 44.8982 31.5195 45.2173 30.617C45.5238 29.6987 46.0661 28.9299 46.8441 28.3106C47.1298 28.0831 47.4297 27.9222 47.7437 27.8279L49.2224 29.6856L49.1509 29.7424C48.8496 29.8526 48.5322 30.0404 48.1988 30.3058C47.2144 31.0894 46.6509 32.1085 46.5084 33.3632C46.3532 34.602 46.7179 35.7771 47.6026 36.8885L53.0433 43.7237L51.1142 45.2593L41.3134 32.9463L43.2425 31.4108Z" fill="white"/>
<path d="M46.9117 46.2386C47.2273 48.3146 46.6439 50.2274 45.1615 51.977C43.6791 53.7265 41.8815 54.6238 39.7686 54.6689C37.6689 54.6985 35.7211 53.9524 33.9251 52.4306C32.1291 50.9088 31.0733 49.1099 30.7577 47.0339C30.4552 44.9423 31.0452 43.0217 32.5276 41.2722C34.01 39.5226 35.8011 38.6331 37.9008 38.6035C40.0005 38.5739 41.9484 39.32 43.7444 40.8418C45.5404 42.3636 46.5961 44.1625 46.9117 46.2386ZM39.8184 52.397C41.2782 52.4636 42.5328 51.8775 43.5823 50.6389C44.6318 49.4003 44.9973 48.0742 44.6789 46.6607C44.345 45.2341 43.4891 43.937 42.1111 42.7694C40.7177 41.5887 39.2911 40.9651 37.8313 40.8986C36.3692 40.8035 35.12 41.3675 34.0836 42.5906C33.0341 43.8292 32.6698 45.1696 32.9906 46.6117C33.3245 48.0384 34.1804 49.3355 35.5583 50.503C36.9363 51.6706 38.3563 52.3019 39.8184 52.397Z" fill="white"/>
<path d="M31.7111 74.0493L15.2976 72.266L16.3663 69.843L26.3686 71.2271L29.804 71.8108L29.8286 71.7551C28.6888 70.9197 27.7834 70.232 27.1122 69.692L19.2407 63.3258L20.2849 60.9585L30.2569 62.5622L33.5998 63.2048L33.6243 63.1491C32.4928 62.2952 31.581 61.5714 30.8891 60.9779L23.1839 54.3856L24.2157 52.0461L36.5387 63.1038L35.5192 65.4154L25.7454 63.9657L22.4304 63.3353L22.4058 63.391C23.498 64.1833 24.3942 64.8669 25.0943 65.4418L32.743 71.7098L31.7111 74.0493Z" fill="white"/>
<path d="M12.6728 92.6408L15.2874 92.7715L15.2904 92.7107C14.4848 92.1625 13.8489 91.4704 13.3827 90.6343C12.8962 89.7973 12.6778 88.8822 12.7275 87.8891C12.7457 87.5242 12.8232 87.1928 12.96 86.8949L15.3313 87.0134L15.3268 87.1046C15.2103 87.4036 15.1414 87.7659 15.1201 88.1915C15.0573 89.4481 15.4495 90.5446 16.2967 91.4809C17.1237 92.4163 18.2465 92.9194 19.6653 92.9903L28.3906 93.4264L28.2675 95.8889L12.5498 95.1034L12.6728 92.6408Z" fill="white"/>
<path d="M26.2243 99.6895C27.9907 100.825 29.0403 102.527 29.3731 104.796C29.706 107.065 29.1909 109.007 27.828 110.622C26.4622 112.217 24.6148 113.186 22.2857 113.527C19.9566 113.869 17.9089 113.472 16.1425 112.336C14.3731 111.181 13.3221 109.468 12.9893 107.2C12.6564 104.931 13.1729 102.999 14.5388 101.404C15.9046 99.8086 17.7521 98.8402 20.0811 98.4986C22.4102 98.1569 24.458 98.5539 26.2243 99.6895ZM26.1563 109.083C27.1712 108.032 27.5608 106.703 27.3252 105.097C27.0895 103.49 26.3362 102.339 25.0651 101.644C23.7739 100.951 22.2348 100.736 20.4478 100.998C18.6408 101.263 17.2298 101.922 16.215 102.973C15.1771 104.007 14.7744 105.317 15.0071 106.904C15.2427 108.51 16.0076 109.669 17.3018 110.382C18.5929 111.074 20.132 111.29 21.919 111.027C23.706 110.765 25.1184 110.117 26.1563 109.083Z" fill="white"/>
<path d="M20.7731 127.15L18.8799 127.822L18.1567 125.785L15.7758 126.631C14.552 127.065 13.5535 127.043 12.7803 126.564C11.9881 126.092 11.3644 125.215 10.9094 123.934C10.7804 123.57 10.6603 123.171 10.5491 122.737L12.5284 122.034C12.6043 122.309 12.6831 122.561 12.7645 122.79C13.0294 123.536 13.3309 124.021 13.669 124.246C14.0072 124.47 14.4726 124.477 15.0655 124.267L17.3315 123.462L16.3536 120.708L18.2468 120.036L19.2247 122.789L32.1615 118.195L32.9866 120.519L20.0499 125.113L20.7731 127.15Z" fill="white"/>
<path d="M31.8811 149.186L33.5238 147.926L33.4867 147.878C31.4575 147.899 29.8009 147.073 28.5168 145.398C27.5044 144.077 27.0604 142.781 27.185 141.509C27.3095 140.237 28.016 139.108 29.3044 138.12L38.0735 131.397L39.5736 133.354L30.9736 139.947C30.1684 140.564 29.7397 141.289 29.6877 142.122C29.6195 142.967 29.9249 143.832 30.604 144.718C31.3695 145.717 32.3213 146.291 33.4594 146.441C34.5974 146.592 35.6738 146.278 36.6884 145.5L44.3704 139.611L45.8706 141.567L33.3812 151.142L31.8811 149.186Z" fill="white"/>
<path d="M51.5893 146.228C53.3816 147.723 54.3073 149.512 54.3664 151.596C54.397 153.682 53.652 155.637 52.1314 157.461C50.6369 159.253 48.8528 160.315 46.7793 160.647C44.6772 160.982 42.7845 160.447 41.1013 159.044C39.3245 157.562 38.4728 155.795 38.5462 153.742C38.6066 151.705 39.4945 149.658 41.21 147.601L50.5614 155.399C51.5492 154.056 52.0459 152.7 52.0515 151.33C52.0285 149.964 51.4326 148.793 50.2636 147.818C48.4557 146.311 46.6525 146.207 44.8541 147.509L43.0072 145.969C44.3665 144.909 45.797 144.397 47.2988 144.434C48.7876 144.487 50.2177 145.085 51.5893 146.228ZM40.6818 154.414C40.7178 155.606 41.2735 156.651 42.3489 157.548C43.4243 158.444 44.5804 158.801 45.8173 158.617C47.0385 158.419 48.2079 157.809 49.3255 156.786L42.0548 150.723C41.1034 151.991 40.6458 153.221 40.6818 154.414Z" fill="white"/>
<path d="M72.6004 154.039L63.1222 172.544L60.9277 171.42L61.9408 169.442L61.8866 169.414C59.9623 170.366 58.07 170.366 56.2097 169.413C54.4035 168.488 53.2872 167.084 52.8608 165.201C52.4252 163.337 52.7948 161.257 53.9698 158.963C55.1262 156.706 56.5886 155.186 58.3569 154.405C60.1159 153.641 61.9437 153.745 63.8402 154.717C65.7186 155.679 66.839 157.119 67.2016 159.038L67.2558 159.065L70.4059 152.915L72.6004 154.039ZM63.0591 156.642C61.7586 155.976 60.5062 155.973 59.3018 156.633C58.0974 157.293 57.0742 158.445 56.2323 160.088C55.3904 161.732 55.0536 163.235 55.2219 164.598C55.3809 165.979 56.1016 166.998 57.3839 167.655C58.8469 168.404 60.226 168.449 61.5212 167.79C62.8071 167.15 63.8618 166.025 64.6852 164.418C65.527 162.774 65.8458 161.262 65.6414 159.88C65.437 158.499 64.5763 157.419 63.0591 156.642Z" fill="white"/>
<path d="M74.3114 163.181C76.5998 161.443 79.3295 160.872 82.5006 161.468C85.6716 162.065 88.0176 163.59 89.5385 166.044C91.0394 168.494 91.4843 171.345 90.8731 174.596C90.2619 177.846 88.8122 180.341 86.5238 182.079C84.2155 183.813 81.4758 184.382 78.3048 183.786C75.1337 183.189 72.7977 181.666 71.2967 179.216C69.7759 176.762 69.321 173.909 69.9322 170.658C70.5434 167.408 72.0031 164.915 74.3114 163.181ZM87.279 167.354C86.2303 165.463 84.4894 164.289 82.0562 163.832C79.6231 163.374 77.5747 163.836 75.9111 165.216C74.2474 166.597 73.1719 168.583 72.6844 171.176C72.197 173.769 72.4776 176.01 73.5263 177.9C74.5713 179.811 76.3103 180.995 78.7435 181.452C81.1766 181.91 83.2269 181.438 84.8942 180.038C86.5579 178.657 87.6334 176.671 88.1209 174.078C88.6083 171.485 88.3277 169.244 87.279 167.354Z" fill="white"/>
<path d="M112.917 168.615L113.319 170.832L105.292 172.289L104.89 170.073L112.917 168.615Z" fill="white"/>
<path d="M123.697 157.32L132.621 162.17L133.624 159.145L130.645 153.593L132.817 152.427L143.107 171.605L140.935 172.771L134.905 161.532L131.996 170.727L129.234 172.21L131.868 164.371L121.149 158.688L123.697 157.32Z" fill="white"/>
<path d="M149.229 159.478L147.566 157.456L147.519 157.494C147.656 158.459 147.571 159.396 147.267 160.303C146.975 161.226 146.445 162.003 145.676 162.635C145.394 162.867 145.097 163.032 144.784 163.131L143.277 161.297L143.347 161.239C143.647 161.124 143.961 160.932 144.29 160.661C145.262 159.862 145.81 158.834 145.932 157.577C146.068 156.336 145.685 155.167 144.783 154.07L139.235 147.321L141.14 145.755L151.133 157.912L149.229 159.478Z" fill="white"/>
<path d="M145.326 144.71C144.978 142.639 145.531 140.717 146.986 138.945C148.44 137.172 150.224 136.246 152.335 136.168C154.434 136.105 156.394 136.821 158.214 138.314C160.033 139.807 161.117 141.589 161.466 143.66C161.801 145.747 161.241 147.676 159.787 149.449C158.332 151.222 156.555 152.139 154.456 152.202C152.357 152.265 150.398 151.549 148.578 150.056C146.758 148.563 145.674 146.781 145.326 144.71ZM152.321 138.44C150.861 138.397 149.616 139.003 148.586 140.258C147.556 141.513 147.211 142.844 147.552 144.253C147.908 145.674 148.785 146.957 150.181 148.103C151.593 149.262 153.029 149.863 154.49 149.906C155.953 149.978 157.193 149.395 158.21 148.155C159.24 146.9 159.583 145.554 159.24 144.117C158.883 142.696 158.007 141.413 156.611 140.267C155.215 139.121 153.785 138.513 152.321 138.44Z" fill="white"/>
<path d="M160.086 116.663L176.526 118.187L175.496 120.627L165.473 119.401L162.029 118.871L162.005 118.927C163.158 119.745 164.074 120.418 164.753 120.947L172.724 127.189L171.718 129.572L161.722 128.126L158.369 127.536L158.345 127.592C159.49 128.428 160.413 129.137 161.114 129.72L168.923 136.19L167.928 138.545L155.432 127.683L156.415 125.356L166.21 126.651L169.535 127.229L169.559 127.173C168.454 126.398 167.547 125.729 166.838 125.165L159.092 119.019L160.086 116.663Z" fill="white"/>
<path d="M178.829 97.7737L176.213 97.6843L176.211 97.7451C177.025 98.2806 177.672 98.9626 178.151 99.7912C178.651 100.62 178.884 101.532 178.85 102.526C178.837 102.891 178.765 103.223 178.633 103.523L176.26 103.442L176.263 103.351C176.375 103.05 176.438 102.687 176.452 102.261C176.495 101.004 176.086 99.9135 175.224 98.9906C174.383 98.0684 173.252 97.5831 171.832 97.5345L163.101 97.2361L163.185 94.7719L178.914 95.3096L178.829 97.7737Z" fill="white"/>
<path d="M165.168 90.9396C163.384 89.832 162.308 88.1465 161.94 85.8832C161.571 83.6199 162.055 81.67 163.393 80.0336C164.733 78.4172 166.565 77.4198 168.888 77.0415C171.212 76.6632 173.266 77.0278 175.05 78.1354C176.837 79.2631 177.915 80.9586 178.283 83.2219C178.652 85.4852 178.166 87.4251 176.826 89.0414C175.485 90.6578 173.653 91.6552 171.33 92.0335C169.006 92.4118 166.952 92.0472 165.168 90.9396ZM165.088 81.5462C164.09 82.6134 163.722 83.9482 163.983 85.5505C164.243 87.1529 165.015 88.2917 166.297 88.9671C167.599 89.6392 169.141 89.8301 170.924 89.5398C172.726 89.2463 174.127 88.566 175.125 87.4988C176.146 86.4483 176.528 85.132 176.271 83.5497C176.01 81.9473 175.227 80.8001 173.921 80.1079C172.619 79.4358 171.077 79.2449 169.295 79.5352C167.512 79.8254 166.11 80.4958 165.088 81.5462Z" fill="white"/>
<path d="M170.186 63.397L172.068 62.695L172.824 64.7199L175.191 63.837C176.408 63.3831 177.406 63.3896 178.187 63.8566C178.987 64.3164 179.624 65.1832 180.099 66.4572C180.234 66.8184 180.36 67.2153 180.478 67.6478L178.51 68.3818C178.43 68.1085 178.347 67.8578 178.262 67.6296C177.986 66.8881 177.677 66.4077 177.335 66.1886C176.993 65.9695 176.528 65.9699 175.938 66.1897L173.685 67.0301L174.707 69.768L172.824 70.4701L171.803 67.7322L158.94 72.5297L158.079 70.2196L170.941 65.422L170.186 63.397Z" fill="white"/>
<path d="M158.732 41.5388L157.11 42.824L157.147 42.8717C159.176 42.8182 160.845 43.6188 162.156 45.2732C163.189 46.5777 163.653 47.8667 163.549 49.1402C163.444 50.4138 162.756 51.5545 161.483 52.5625L152.821 59.4227L151.29 57.4899L159.785 50.7619C160.581 50.1319 160.998 49.4003 161.037 48.567C161.092 47.721 160.772 46.8606 160.08 45.9856C159.298 44.9993 158.338 44.44 157.197 44.3076C156.057 44.1753 154.986 44.506 153.984 45.2997L146.395 51.3095L144.865 49.3767L157.201 39.606L158.732 41.5388Z" fill="white"/>
<path d="M139.073 44.8063C137.257 43.3401 136.303 41.5658 136.212 39.4831C136.148 37.3974 136.862 35.431 138.354 33.5837C139.82 31.768 141.587 30.6779 143.655 30.3133C145.752 29.9457 147.652 30.4503 149.358 31.8272C151.158 33.2806 152.037 35.034 151.996 37.0875C151.968 39.1253 151.112 41.1862 149.429 43.2703L139.956 35.6209C138.99 36.9793 138.514 38.3431 138.53 39.7123C138.575 41.0785 139.189 42.2397 140.373 43.1958C142.205 44.6747 144.009 44.7495 145.787 43.4201L147.658 44.9308C146.316 46.0118 144.893 46.5457 143.391 46.5325C141.902 46.5036 140.462 45.9282 139.073 44.8063ZM149.85 36.4503C149.795 35.2584 149.223 34.2226 148.134 33.3429C147.044 32.4632 145.883 32.1252 144.649 32.3287C143.431 32.5451 142.271 33.1736 141.17 34.2145L148.535 40.1619C149.467 38.8794 149.905 37.6422 149.85 36.4503Z" fill="white"/>
<path d="M117.941 37.3274L127.127 18.6761L129.339 19.7654L128.357 21.7589L128.411 21.7858C130.32 20.8032 132.213 20.7736 134.088 21.6971C135.908 22.5937 137.046 23.9799 137.502 25.8558C137.967 27.7134 137.631 29.7983 136.492 32.1104C135.371 34.386 133.933 35.9285 132.177 36.7377C130.43 37.5288 128.601 37.4536 126.69 36.5122C124.796 35.5798 123.653 34.1573 123.261 32.2447L123.206 32.2178L120.153 38.4167L117.941 37.3274ZM127.44 34.5746C128.751 35.2201 130.004 35.2035 131.197 34.5247C132.391 33.8459 133.396 32.6781 134.212 31.0215C135.028 29.3648 135.341 27.8564 135.151 26.4962C134.97 25.1178 134.234 24.1103 132.941 23.4737C131.467 22.7475 130.087 22.7241 128.802 23.4034C127.527 24.0646 126.49 25.2053 125.692 26.8255C124.876 28.4822 124.581 29.9996 124.807 31.3777C125.033 32.7558 125.911 33.8215 127.44 34.5746Z" fill="white"/>
<path d="M116.086 28.214C113.826 29.9877 111.105 30.6015 107.925 30.0554C104.745 29.5092 102.375 28.0213 100.816 25.5915C99.2767 23.1652 98.787 20.322 99.3468 17.0619C99.9067 13.8018 101.317 11.2849 103.578 9.51121C105.858 7.74091 108.589 7.12882 111.769 7.67495C114.949 8.22108 117.309 9.70732 118.848 12.1337C120.407 14.5634 120.907 17.4084 120.347 20.6684C119.787 23.9285 118.367 26.4437 116.086 28.214ZM103.055 24.2464C104.133 26.12 105.892 27.2663 108.332 27.6853C110.772 28.1044 112.813 27.6107 114.455 26.2042C116.097 24.7977 117.141 22.7945 117.587 20.1944C118.034 17.5944 117.718 15.3575 116.639 13.484C115.564 11.5904 113.807 10.434 111.367 10.015C108.927 9.59595 106.884 10.0997 105.239 11.5261C103.598 12.9326 102.553 14.9358 102.107 17.5359C101.66 20.1359 101.976 22.3728 103.055 24.2464Z" fill="white"/>
</svg>
