<svg width="1768" height="889" viewBox="0 0 1768 889" fill="none" xmlns="http://www.w3.org/2000/svg">
<path opacity="0.35" d="M1576.1 130.916C1582.63 139.802 1583.94 150.231 1580.35 161.992C1576.76 173.754 1568.28 186.81 1555.31 200.904C1529.38 229.093 1485.56 261.367 1427.28 295.691C1310.73 364.336 1136.45 441.13 932.053 509.795C727.656 578.46 531.875 625.985 380.578 647.32C304.925 657.987 240.423 662.102 191.541 659.047C167.099 657.52 146.594 654.201 130.566 649.029C114.54 643.858 103.042 636.852 96.5148 627.966C89.9881 619.08 88.6808 608.651 92.2702 596.891C95.8603 585.128 104.339 572.073 117.306 557.978C143.239 529.789 187.058 497.515 245.335 463.191C361.882 394.546 536.167 317.752 740.564 249.088C944.961 180.423 1140.74 132.897 1292.04 111.563C1367.69 100.895 1432.19 96.78 1481.08 99.8351C1505.52 101.363 1526.02 104.681 1542.05 109.853C1558.08 115.024 1569.58 122.03 1576.1 130.916Z" stroke="#C5FF49"/>
<path opacity="0.35" d="M1603.96 163.787C1610.49 172.673 1611.8 183.103 1608.21 194.863C1604.62 206.626 1596.14 219.681 1583.17 233.776C1557.24 261.964 1513.42 294.239 1455.14 328.563C1338.59 397.208 1164.31 474.001 959.914 542.666C755.517 611.331 559.735 658.857 408.438 680.191C332.785 690.859 268.284 694.974 219.402 691.919C194.959 690.391 174.454 687.072 158.426 681.901C142.4 676.729 130.902 669.724 124.375 660.838C117.848 651.952 116.541 641.523 120.13 629.762C123.72 618 132.199 604.944 145.166 590.849C171.1 562.661 214.918 530.387 273.195 496.062C389.743 427.418 564.027 350.624 768.424 281.959C972.821 213.294 1168.6 165.769 1319.9 144.434C1395.55 133.766 1460.05 129.651 1508.94 132.707C1533.38 134.234 1553.88 137.553 1569.91 142.725C1585.94 147.896 1597.44 154.901 1603.96 163.787Z" stroke="#C5FF49"/>
<path opacity="0.35" d="M1635.96 212.415C1642.49 221.301 1643.8 231.73 1640.21 243.491C1636.62 255.253 1628.14 268.308 1615.17 282.403C1589.24 310.592 1545.42 342.866 1487.14 377.19C1370.6 445.835 1196.31 522.629 991.914 591.294C787.517 659.959 591.735 707.484 440.439 728.819C364.786 739.486 300.284 743.601 251.402 740.546C226.96 739.019 206.455 735.7 190.427 730.528C174.401 725.357 162.902 718.351 156.376 709.465C149.849 700.579 148.542 690.15 152.131 678.389C155.721 666.627 164.199 653.572 177.167 639.477C203.1 611.288 246.919 579.014 305.196 544.69C421.743 476.045 596.028 399.251 800.425 330.586C1004.82 261.922 1200.6 214.396 1351.9 193.062C1427.55 182.394 1492.05 178.279 1540.94 181.334C1565.38 182.862 1585.88 186.18 1601.91 191.352C1617.94 196.523 1629.44 203.529 1635.96 212.415Z" stroke="#C5FF49"/>
<path opacity="0.35" d="M1671.49 260.777C1678.01 269.663 1679.32 280.092 1675.73 291.853C1672.14 303.615 1663.66 316.67 1650.69 330.765C1624.76 358.954 1580.94 391.228 1522.66 425.552C1406.12 494.197 1231.83 570.991 1027.44 639.656C823.039 708.321 627.257 755.846 475.961 777.181C400.308 787.848 335.806 791.963 286.924 788.908C262.482 787.381 241.977 784.062 225.949 778.89C209.923 773.719 198.424 766.713 191.898 757.827C185.371 748.941 184.064 738.512 187.653 726.752C191.243 714.989 199.721 701.934 212.689 687.839C238.622 659.65 282.441 627.376 340.718 593.052C457.265 524.407 631.55 447.613 835.947 378.949C1040.34 310.284 1236.13 262.758 1387.42 241.424C1463.07 230.756 1527.58 226.641 1576.46 229.696C1600.9 231.224 1621.41 234.542 1637.43 239.714C1653.46 244.885 1664.96 251.891 1671.49 260.777Z" stroke="#C5FF49"/>
<path d="M1541.17 374.754L1561.67 393.672L1587.89 384.17L1568.98 404.668L1578.48 430.895L1557.98 411.976L1531.75 421.478L1550.67 400.98L1541.17 374.754Z" fill="#C5FF49"/>
<path d="M1359.73 82.2054L1365.42 99.0408L1382.99 101.732L1366.15 107.42L1363.46 124.986L1357.77 108.15L1340.21 105.459L1357.04 99.771L1359.73 82.2054Z" fill="#C5FF49"/>
</svg>
